<svg id="Layer_1" data-name="Layer 1" xmlns="http://www.w3.org/2000/svg" viewBox="0 0 760.38 982.54"><defs><style>.cls-1{fill:#6fc7bc;}.cls-2{fill:#148580;}.cls-3{fill:none;}.cls-4{fill:#298276;}.cls-5{fill:#5c646b;}</style></defs><path class="cls-1" d="M755.23,542.55v15.29A157.53,157.53,0,0,1,597.68,715.35H302.49a31.24,31.24,0,0,1,0-62.47H598.18A93.39,93.39,0,0,0,624,649.3a94.45,94.45,0,0,0,68.8-91V542.55Z" transform="translate(-159.73 -48.78)"/><path class="cls-2" d="M555.08,542.55h-.7v-.09A3.61,3.61,0,0,0,555.08,542.55Z" transform="translate(-159.73 -48.78)"/><path class="cls-2" d="M568.94,111a58.73,58.73,0,0,0-14.56,1.81V111Z" transform="translate(-159.73 -48.78)"/><path class="cls-2" d="M554.38,542.46v.09h.7A3.61,3.61,0,0,1,554.38,542.46Z" transform="translate(-159.73 -48.78)"/><path class="cls-3" d="M811,542.55a117.39,117.39,0,0,1-13.74.78,120,120,0,0,1-13.86-.78Z" transform="translate(-159.73 -48.78)"/><path class="cls-1" d="M755.23,379.08v101H692.76V376.86a91,91,0,0,0-1.44-16.17,93,93,0,0,0-61.81-72,86.15,86.15,0,0,0-12.66-3.29c-1.48-.33-3-.54-4.48-.74a90.71,90.71,0,0,0-12.63-.87H241.43a16.11,16.11,0,0,0-9,2.72A16.36,16.36,0,0,0,225,300.28V684.1a31.24,31.24,0,1,1-62.47,0V283.83A62.48,62.48,0,0,1,225,221.37H595.71c1.44,0,2.88,0,4.28,0h0a160.94,160.94,0,0,1,16.82,1.35,157.28,157.28,0,0,1,52.84,16.78A160.48,160.48,0,0,1,726,288.73a159,159,0,0,1,29.28,90.35Z" transform="translate(-159.73 -48.78)"/><path class="cls-4" d="M919.36,170.62V421.27A122.07,122.07,0,0,1,811,542.55h-256a3.61,3.61,0,0,1-.7-.09,122,122,0,0,1-107.5-121.19V323.46a31.24,31.24,0,0,1,31.23-31.24h0a31.24,31.24,0,0,1,31.24,31.24v97.81c0,.7,0,1.36,0,2.06,0,1.35.12,2.71.25,4a57.44,57.44,0,0,0,26,43.34c1.44.95,2.92,1.85,4.44,2.67a58.55,58.55,0,0,0,27.06,6.71H806.88a59.6,59.6,0,0,0,50-58.81V170.62A59.59,59.59,0,0,0,797.3,111H554.38v1.81a59.54,59.54,0,0,0-45,57.78v12.32a31.24,31.24,0,0,1-31.24,31.23h0a31.23,31.23,0,0,1-31.23-31.23V170.62A122.15,122.15,0,0,1,554.38,49.38c2.06-.24,4.11-.45,6.21-.57h16.24a.09.09,0,0,1,.13,0l39.89.08,167.66.29h.12l25.58,0h.17A122.71,122.71,0,0,1,871,73.32,121.76,121.76,0,0,1,919.36,170.62Z" transform="translate(-159.73 -48.78)"/><path class="cls-3" d="M568.94,111a58.73,58.73,0,0,0-14.56,1.81V111Z" transform="translate(-159.73 -48.78)"/><path class="cls-5" d="M228.25,795.6q12.69,12.24,12.7,34.09t-12.7,33.95q-12.7,12.11-36.12,12.11H166.2V783.36h25.93Q215.55,783.36,228.25,795.6ZM224,859.89q10.92-10.86,10.92-30.2T224,799.29q-10.92-10.92-31.84-10.92h-20v82.37h20Q213,870.74,224,859.89Z" transform="translate(-159.73 -48.78)"/><path class="cls-5" d="M258.32,787a5.48,5.48,0,0,1,0-7.43,5.07,5.07,0,0,1,7.1,0,5.14,5.14,0,0,1-7.1,7.43Zm6.45,17.31v71.46h-5.92V804.29Z" transform="translate(-159.73 -48.78)"/><path class="cls-5" d="M336.49,808.83a29,29,0,0,1,11.05,14V804.29h5.92V878a33.76,33.76,0,0,1-4.34,17.31,30.09,30.09,0,0,1-11.71,11.45,33.92,33.92,0,0,1-16.45,4q-13.43,0-22.24-6.45a29.91,29.91,0,0,1-11.58-17.37h5.92a25.18,25.18,0,0,0,9.87,13.62q7.23,5.07,18,5.07a27.42,27.42,0,0,0,13.55-3.36,24.14,24.14,0,0,0,9.54-9.6A29.6,29.6,0,0,0,347.54,878V857.06a29.55,29.55,0,0,1-11.12,14.15q-8,5.58-19.15,5.59a35,35,0,0,1-17.83-4.54,31.62,31.62,0,0,1-12.24-12.9A41,41,0,0,1,282.79,840a40.56,40.56,0,0,1,4.41-19.34,31.22,31.22,0,0,1,12.24-12.77,35.34,35.34,0,0,1,17.83-4.47Q328.6,803.37,336.49,808.83Zm7.17,14.6a27.67,27.67,0,0,0-10.6-11,29.37,29.37,0,0,0-15-3.88,30.26,30.26,0,0,0-15.26,3.75,25.86,25.86,0,0,0-10.27,10.86,40.39,40.39,0,0,0,0,33.69,26.22,26.22,0,0,0,10.34,10.92,31.69,31.69,0,0,0,30.26-.07,27.09,27.09,0,0,0,10.6-11A35,35,0,0,0,347.54,840,34.17,34.17,0,0,0,343.66,823.43Z" transform="translate(-159.73 -48.78)"/><path class="cls-5" d="M374.52,787a5.48,5.48,0,0,1,0-7.43,5.07,5.07,0,0,1,7.1,0,5.14,5.14,0,0,1-7.1,7.43ZM381,804.29v71.46H375V804.29Z" transform="translate(-159.73 -48.78)"/><path class="cls-5" d="M411.49,809.42v47.24q0,7.9,2.9,10.86t10.27,3h8v5.27h-8.95q-9.35,0-13.75-4.41t-4.41-14.68V809.42H394.78v-5.13h10.79V786.13h5.92v18.16h21.19v5.13Z" transform="translate(-159.73 -48.78)"/><path class="cls-5" d="M449.06,820.61a31.22,31.22,0,0,1,12.24-12.77,35.31,35.31,0,0,1,17.83-4.47q11.33,0,19.22,5.52a29.38,29.38,0,0,1,11,14.09V804.29h5.92v71.46H509.4V856.93a29.51,29.51,0,0,1-11.12,14.28q-8,5.58-19.15,5.59a35,35,0,0,1-17.83-4.54,31.62,31.62,0,0,1-12.24-12.9A41,41,0,0,1,444.65,840,40.56,40.56,0,0,1,449.06,820.61Zm56.46,2.82a27.72,27.72,0,0,0-10.59-11,29.43,29.43,0,0,0-15-3.88,30.26,30.26,0,0,0-15.26,3.75,25.86,25.86,0,0,0-10.27,10.86,40.39,40.39,0,0,0,0,33.69,26.26,26.26,0,0,0,10.33,10.92,31.71,31.71,0,0,0,30.27-.07,27,27,0,0,0,10.59-11A34.85,34.85,0,0,0,509.4,840,34.28,34.28,0,0,0,505.52,823.43Z" transform="translate(-159.73 -48.78)"/><path class="cls-5" d="M542.82,778.36v97.39H536.9V778.36Z" transform="translate(-159.73 -48.78)"/><path class="cls-5" d="M607.57,870.74h34.35v5H601.65V783.36h5.92Z" transform="translate(-159.73 -48.78)"/><path class="cls-5" d="M668.76,872.32a31.58,31.58,0,0,1-12.57-12.83A40.37,40.37,0,0,1,651.65,840a39.57,39.57,0,0,1,4.61-19.41A31.46,31.46,0,0,1,669,807.78a39.18,39.18,0,0,1,36.12,0,31.35,31.35,0,0,1,12.57,12.69,43.89,43.89,0,0,1-.07,39,31.86,31.86,0,0,1-12.69,12.83,36.72,36.72,0,0,1-18.1,4.48A36.32,36.32,0,0,1,668.76,872.32Zm32.57-4.27a26.29,26.29,0,0,0,10.86-10.6q4.08-7.1,4.08-17.5t-4.08-17.37A26.34,26.34,0,0,0,701.4,812a30.9,30.9,0,0,0-14.48-3.49A30.47,30.47,0,0,0,672.51,812a26.42,26.42,0,0,0-10.72,10.59q-4.08,7.11-4.08,17.37t4,17.5a26.14,26.14,0,0,0,10.66,10.6,30.58,30.58,0,0,0,14.41,3.48A31.4,31.4,0,0,0,701.33,868.05Z" transform="translate(-159.73 -48.78)"/><path class="cls-5" d="M790.22,808.83a29,29,0,0,1,11.06,14V804.29h5.92V878a33.76,33.76,0,0,1-4.34,17.31,30.09,30.09,0,0,1-11.71,11.45,33.92,33.92,0,0,1-16.45,4q-13.43,0-22.24-6.45a29.91,29.91,0,0,1-11.58-17.37h5.92a25.18,25.18,0,0,0,9.87,13.62q7.23,5.07,18,5.07a27.45,27.45,0,0,0,13.55-3.36,24.27,24.27,0,0,0,9.54-9.6A29.71,29.71,0,0,0,801.28,878V857.06a29.67,29.67,0,0,1-11.12,14.15q-8,5.58-19.15,5.59a35,35,0,0,1-17.83-4.54,31.62,31.62,0,0,1-12.24-12.9A41,41,0,0,1,736.53,840a40.56,40.56,0,0,1,4.41-19.34,31.22,31.22,0,0,1,12.24-12.77A35.31,35.31,0,0,1,771,803.37Q782.33,803.37,790.22,808.83Zm7.18,14.6a27.67,27.67,0,0,0-10.6-11,29.37,29.37,0,0,0-15-3.88,30.26,30.26,0,0,0-15.26,3.75,25.8,25.8,0,0,0-10.27,10.86,40.29,40.29,0,0,0,0,33.69,26.2,26.2,0,0,0,10.33,10.92,31.71,31.71,0,0,0,30.27-.07,27,27,0,0,0,10.59-11A34.85,34.85,0,0,0,801.28,840,34.28,34.28,0,0,0,797.4,823.43Z" transform="translate(-159.73 -48.78)"/><path class="cls-5" d="M828.25,787a5.51,5.51,0,0,1,0-7.43,5.08,5.08,0,0,1,7.11,0,5.14,5.14,0,0,1-7.11,7.43Zm6.45,17.31v71.46h-5.92V804.29Z" transform="translate(-159.73 -48.78)"/><path class="cls-5" d="M857.14,820.47a30.83,30.83,0,0,1,12.24-12.69,36,36,0,0,1,18-4.41q13.42,0,22,6.71a28.65,28.65,0,0,1,10.73,18h-6.19A22.31,22.31,0,0,0,905,813.63q-7.17-5.26-17.7-5.26A29.68,29.68,0,0,0,873,811.85a25.51,25.51,0,0,0-10.33,10.66q-3.88,7.18-3.89,17.44t3.89,17.5A26,26,0,0,0,873,868.11a29.18,29.18,0,0,0,14.34,3.56q10.53,0,17.7-5.27a22.29,22.29,0,0,0,8.88-14.47h6.19a29.08,29.08,0,0,1-10.79,18q-8.69,6.84-22,6.84a35.47,35.47,0,0,1-18-4.48,31.07,31.07,0,0,1-12.24-12.83,45.36,45.36,0,0,1,0-39Z" transform="translate(-159.73 -48.78)"/><path class="cls-5" d="M233,964.54h-9.75a21.76,21.76,0,0,0-5.77.66,12.32,12.32,0,0,0-4.3,2.18,10.43,10.43,0,0,0-3.07,4,11.89,11.89,0,0,0-1.14,5v45.88H181.86a57.3,57.3,0,0,1-6.47-.33,32.94,32.94,0,0,1-5.35-1,46.24,46.24,0,0,1-4.73-1.66,51.11,51.11,0,0,1-5.58-2.84l3.31-5.77a39.55,39.55,0,0,0,8.51,3.88,27.29,27.29,0,0,0,7.67,1H202.3V976.93a19.49,19.49,0,0,1,1.6-8.27,20.27,20.27,0,0,1,4.83-6.39,16.81,16.81,0,0,1,6.29-3.41,25.33,25.33,0,0,1,7.14-1h17.59v45.88h12.68v6.71H233ZM189.43,987.9a5,5,0,1,1,1.51-3.59A4.9,4.9,0,0,1,189.43,987.9Zm0,16.75a5,5,0,1,1,1.51-3.6A4.89,4.89,0,0,1,189.43,1004.65Z" transform="translate(-159.73 -48.78)"/><path class="cls-5" d="M248.08,1003.7h24.21v6.71H248.08Z" transform="translate(-159.73 -48.78)"/><path class="cls-5" d="M267.94,1003.7h24.21v6.71H267.94Z" transform="translate(-159.73 -48.78)"/><path class="cls-5" d="M287.8,1003.7h9.74q-3-4.83-3-13.24a28,28,0,0,1,2.13-10.88,29.49,29.49,0,0,1,5.77-9,26.55,26.55,0,0,1,19.53-8.33,28.83,28.83,0,0,1,11.31,2.18,27.64,27.64,0,0,1,8.93,6,27.1,27.1,0,0,1,5.92,8.89,28.67,28.67,0,0,1,2.12,11.16,28,28,0,0,1-1.13,8.13,22.92,22.92,0,0,1-2,5.11h10.31v6.71H342.18a26.23,26.23,0,0,1-8.74,5.82,29.25,29.25,0,0,1-11.5,2.22,26.88,26.88,0,0,1-11.11-2.26,26.07,26.07,0,0,1-8.37-5.78H287.8Zm34.14,8a22.78,22.78,0,0,0,8.61-1.61A20,20,0,0,0,341.85,999a21.7,21.7,0,0,0,1.66-8.56,22.78,22.78,0,0,0-1.61-8.61,19.87,19.87,0,0,0-4.49-6.81,20.71,20.71,0,0,0-6.86-4.44,22.59,22.59,0,0,0-8.61-1.61,20,20,0,0,0-14.85,6.33,21.72,21.72,0,0,0-4.3,6.86,22.24,22.24,0,0,0-1.56,8.28,22,22,0,0,0,1.56,8.18,20.58,20.58,0,0,0,4.35,6.81,21.23,21.23,0,0,0,6.57,4.59A19.94,19.94,0,0,0,321.94,1011.74Z" transform="translate(-159.73 -48.78)"/><path class="cls-5" d="M353.06,1003.7h24.22v6.71H353.06Z" transform="translate(-159.73 -48.78)"/><path class="cls-5" d="M372.92,1003.7h19.87a21.55,21.55,0,0,1-3.32-2.55,23.14,23.14,0,0,1-2.83-3.88,23.77,23.77,0,0,1-2.65-6A25.88,25.88,0,0,1,383,984a26.23,26.23,0,0,1,2.13-10.64,22.51,22.51,0,0,1,6.24-8.33,29.54,29.54,0,0,1,9.93-5.34,43,43,0,0,1,13.29-1.9h13v52.59H372.92ZM389.76,984a18.58,18.58,0,0,0,1.09,6.47,21.65,21.65,0,0,0,2.88,5.45,22.88,22.88,0,0,0,4.31,4.44,29.52,29.52,0,0,0,5.15,3.31h17.69V964.54H412a26.82,26.82,0,0,0-8.33,1.32,22.58,22.58,0,0,0-7.14,3.79,18.26,18.26,0,0,0-4.92,6.1A18.08,18.08,0,0,0,389.76,984ZM408,946.57a4.93,4.93,0,0,1-3.6,1.51,5.11,5.11,0,0,1,0-10.21,5.08,5.08,0,0,1,3.6,8.7Zm16.92,0a5,5,0,0,1-7.19,0,5.12,5.12,0,1,1,7.19,0Z" transform="translate(-159.73 -48.78)"/><path class="cls-5" d="M441.5,1031.32a16.42,16.42,0,0,1-6.34-1.61l2.46-6.24a12.11,12.11,0,0,0,4.25,1.13,5.89,5.89,0,0,0,3.51-.9,5.78,5.78,0,0,0,1.89-2.41,11.63,11.63,0,0,0,.85-3.55c.12-1.35.19-2.66.19-3.92v-56H455v45.88h14.66v6.71H455v3.41a40.11,40.11,0,0,1-.52,6.57,15.88,15.88,0,0,1-2,5.63,10.36,10.36,0,0,1-4.17,3.88A14.69,14.69,0,0,1,441.5,1031.32Z" transform="translate(-159.73 -48.78)"/><path class="cls-5" d="M465.33,1003.7h14.76V931.25h6.71V938h0v72.45H465.33Z" transform="translate(-159.73 -48.78)"/><path class="cls-5" d="M515.94,931.25h6.71v79.16h-6.71Z" transform="translate(-159.73 -48.78)"/><path class="cls-5" d="M595,1031.23a65.17,65.17,0,0,1-7-.34,30.09,30.09,0,0,1-5.53-1.09,23.21,23.21,0,0,1-4.59-1.89,30.36,30.36,0,0,1-4.16-2.74,16.09,16.09,0,0,1-5.44-7.28,24.34,24.34,0,0,1-1.75-8.8V983.84h6.71v24.31a18.42,18.42,0,0,0,1.33,7.66,12.25,12.25,0,0,0,3.88,4.73,18.63,18.63,0,0,0,6.24,3,28.7,28.7,0,0,0,7.66,1h33v-14.1h-4.44a52.94,52.94,0,0,1-12.21-1.36,31,31,0,0,1-10.3-4.45,22.19,22.19,0,0,1-7.24-8.14,25.9,25.9,0,0,1-2.7-12.34,24.55,24.55,0,0,1,2.22-10.4,23.76,23.76,0,0,1,6.49-8.37,31,31,0,0,1,10.26-5.54,42.91,42.91,0,0,1,13.48-2h11.16v45.88h14.66v6.71H632.09v20.82Zm.19-47.11a19.84,19.84,0,0,0,1.75,8.61,16.49,16.49,0,0,0,4.87,6.1,22,22,0,0,0,7.38,3.64,32.5,32.5,0,0,0,9.08,1.23h7.09V964.54h-7.09a26.31,26.31,0,0,0-8.75,1.47,25.08,25.08,0,0,0-7.38,4,18.77,18.77,0,0,0-5.06,6.15A17.09,17.09,0,0,0,595.2,984.12Zm17.21-37.55a5.08,5.08,0,1,1-7.19-7.19,5.08,5.08,0,1,1,7.19,7.19Zm16.93,0a5,5,0,1,1,1.52-3.59A4.91,4.91,0,0,1,629.34,946.57Z" transform="translate(-159.73 -48.78)"/><path class="cls-5" d="M642.39,1003.7h24.22v6.71H642.39Z" transform="translate(-159.73 -48.78)"/><path class="cls-5" d="M662.26,1003.7h24.21v6.71H662.26Z" transform="translate(-159.73 -48.78)"/><path class="cls-5" d="M682.12,1003.7h14.75V931.25h6.72v33h34.9a19.54,19.54,0,0,1,8.28,1.6,20.38,20.38,0,0,1,6.38,4.83,16.66,16.66,0,0,1,3.4,6.29,25,25,0,0,1,1,7.14v19.58h12.68v6.71H682.12ZM703.59,971v32.73h47.29V985.25a21.68,21.68,0,0,0-.66-5.76,12.36,12.36,0,0,0-2.18-4.31,10.43,10.43,0,0,0-4-3.07,11.89,11.89,0,0,0-5-1.14Z" transform="translate(-159.73 -48.78)"/><path class="cls-5" d="M765.92,1003.7h11.92V957.82h6.71v45.88h12.68v6.71H765.92Zm18.54-57.13A5,5,0,1,1,786,943,4.91,4.91,0,0,1,784.46,946.57Z" transform="translate(-159.73 -48.78)"/><path class="cls-5" d="M792.88,1003.7h9.74q-3-4.83-3-13.24a28,28,0,0,1,2.13-10.88,29.49,29.49,0,0,1,5.77-9A26.51,26.51,0,0,1,827,962.27a28.83,28.83,0,0,1,11.31,2.18,27.64,27.64,0,0,1,8.93,6,27.23,27.23,0,0,1,5.91,8.89,28.67,28.67,0,0,1,2.13,11.16,28.37,28.37,0,0,1-1.13,8.13,22.92,22.92,0,0,1-2,5.11h10.31v6.71H847.26a26.27,26.27,0,0,1-8.75,5.82,29.2,29.2,0,0,1-11.49,2.22,26.85,26.85,0,0,1-11.11-2.26,26,26,0,0,1-8.38-5.78H792.88Zm34.14,8a22.78,22.78,0,0,0,8.61-1.61A20,20,0,0,0,846.93,999a21.88,21.88,0,0,0,1.66-8.56,22.78,22.78,0,0,0-1.61-8.61,20,20,0,0,0-4.49-6.81,20.81,20.81,0,0,0-6.86-4.44A22.59,22.59,0,0,0,827,969a20,20,0,0,0-14.85,6.33,21.72,21.72,0,0,0-4.3,6.86,22.24,22.24,0,0,0-1.56,8.28,22,22,0,0,0,1.56,8.18,20.58,20.58,0,0,0,4.35,6.81,21.23,21.23,0,0,0,6.57,4.59A19.91,19.91,0,0,0,827,1011.74Z" transform="translate(-159.73 -48.78)"/><path class="cls-5" d="M858.14,1003.7H872.9V931.25h6.71V938h0v72.45H858.14Z" transform="translate(-159.73 -48.78)"/><path class="cls-5" d="M908.74,931.25h6.72v79.16h-6.72Z" transform="translate(-159.73 -48.78)"/></svg>